<svg xmlns:inkscape="http://www.inkscape.org/namespaces/inkscape" xmlns:rdf="http://www.w3.org/1999/02/22-rdf-syntax-ns#" xmlns="http://www.w3.org/2000/svg" xmlns:xlink="http://www.w3.org/1999/xlink" xmlns:ns1="http://sozi.baierouge.fr" xmlns:cc="http://creativecommons.org/ns#" xmlns:dc="http://purl.org/dc/elements/1.1/" xmlns:sodipodi="http://sodipodi.sourceforge.net/DTD/sodipodi-0.dtd" id="svg4847" sodipodi:docname="edit-icon.svg" viewBox="-3 -3 587 750" version="1.1" inkscape:version="0.48.4 r9939" transform="matrix(1, 0, 0, 1, 0, 0)"><g id="deeditor_bgCarrier" stroke-width="0">
    <rect id="dee_c_e" x="-3" y="-3" width="587" height="750" rx="0" fill="#10b981" strokewidth="0"/>
  </g>
  <sodipodi:namedview id="base" bordercolor="#666666" inkscape:pageshadow="2" inkscape:window-y="24" fit-margin-left="0" pagecolor="#ffffff" inkscape:window-height="844" inkscape:window-maximized="0" inkscape:zoom="0.17110443" inkscape:window-x="0" showgrid="false" borderopacity="1.0" inkscape:current-layer="layer1" inkscape:cx="1337.0235" inkscape:cy="-553.48697" fit-margin-top="0" fit-margin-right="0" fit-margin-bottom="0" inkscape:window-width="1589" inkscape:pageopacity="0.0" inkscape:document-units="px" fill="#ffffff"/>
  <g id="layer1" inkscape:label="Layer 1" inkscape:groupmode="layer" transform="translate(-105.03 -121.31)">
    <g id="g4885">
      <g id="g4830" style="fill:#ffffff" transform="matrix(11.996 0 0 11.996 -1026.7 -3323.3)">
        <path id="path11535" sodipodi:nodetypes="sccccscccccccccccccccccccc" inkscape:connector-curvature="0" style="color:#ffffff;fill:#ffffff" d="m139.16 289.02c-1.2148-0.82153-2.4093-1.383-3.6056-1.8664l-1.2844 1.7675 7.3028 5.3067 1.2844-1.7675c-1.2539-1.5418-2.4824-2.6188-3.6972-3.4403zm-5.7164 1.0383-1.2844 1.7675 7.3028 5.3067 1.2844-1.7675zm-2.2202 3.0554-17.334 23.854 3.9697 1.2896 16.735-22.702zm4.0836 3.0131-16.643 22.656 2.2523 3.5376 17.61-23.9zm-21.862 21.863-1.8834 9.5262 8.3239-4.591-2.3632-3.5249z"/>
        <path id="rect4819" sodipodi:nodetypes="ssssssccssssssccs" style="fill:#ffffff" inkscape:connector-curvature="0" d="m101.62 290.19c-4.0274 0-7.2812 3.2539-7.2812 7.2812v44.531c0 4.0274 3.2539 7.25 7.2812 7.25h29.75c4.0274 0 7.2812-3.2226 7.2812-7.25v-34.844l-4.4375 6v27.156c0 2.4813-1.9874 4.5-4.4688 4.5h-26.5c-2.4813 0-4.4688-2.0187-4.4688-4.5v-41.188c0-2.4813 1.9874-4.4688 4.4688-4.4688h21.127l2.8419-4.4688z"/>
      </g>
    </g>
  </g>
  <metadata fill="#ffffff">
    <rdf:RDF fill="#ffffff">
      <cc:Work fill="#ffffff">
        <dc:format fill="#ffffff">image/svg+xml</dc:format>
        <dc:type rdf:resource="http://purl.org/dc/dcmitype/StillImage" fill="#ffffff"/>
        <cc:license rdf:resource="http://creativecommons.org/licenses/publicdomain/" fill="#ffffff"/>
        <dc:publisher fill="#ffffff">
          <cc:Agent rdf:about="http://openclipart.org/" fill="#ffffff">
            <dc:title fill="#ffffff">Openclipart</dc:title>
          </cc:Agent>
        </dc:publisher>
      </cc:Work>
      <cc:License rdf:about="http://creativecommons.org/licenses/publicdomain/" fill="#ffffff">
        <cc:permits rdf:resource="http://creativecommons.org/ns#Reproduction" fill="#ffffff"/>
        <cc:permits rdf:resource="http://creativecommons.org/ns#Distribution" fill="#ffffff"/>
        <cc:permits rdf:resource="http://creativecommons.org/ns#DerivativeWorks" fill="#ffffff"/>
      </cc:License>
    </rdf:RDF>
  </metadata>
</svg>